<?xml version="1.0" encoding="UTF-8"?>
<svg width="521px" height="317px" viewBox="0 0 521 317" version="1.1" xmlns="http://www.w3.org/2000/svg" xmlns:xlink="http://www.w3.org/1999/xlink">
    <!-- Generator: Sketch 45 (43475) - http://www.bohemiancoding.com/sketch -->
    <title>Action Verb Logo</title>
    <desc>Created with Sketch.</desc>
    <defs>
        <polygon id="path-1" points="527.717701 324.897888 0.280700684 324.897888 0.280700684 0.5988729 527.717701 0.5988729"></polygon>
    </defs>
    <g id="Page-1" stroke="none" stroke-width="1" fill="none" fill-rule="evenodd">
        <g id="Action-Verb-Logo" transform="translate(-3.000000, -4.000000)">
            <path d="M143.27,81.144 C140.539,78.207 131.246,80.035 126.737,80.771 C115.511,82.581 110.247,91.392 112.062,102.706 C113.896,114.02 121.705,120.738 132.917,118.913 C137.734,118.148 145.494,116.579 148.495,113.393 L160.175,125.194 C154.375,133.772 144.656,138.044 136.25,139.402 C113.966,142.991 93.696,130.321 89.783,106.274 C85.882,82.245 101.134,63.856 123.396,60.277 C131.839,58.929 142.38,59.933 150.593,66.243 L143.27,81.144" id="Fill-1" stroke="#B82F27" stroke-width="5" fill="#FFFFFF"></path>
            <g id="Group-5" transform="translate(153.000000, 7.000000)" stroke-width="5" stroke="#B82F27" fill="#FFFFFF">
                <polyline id="Fill-2" points="59.42 59.983 39.802 63.135 46.434 103.967 71.252 99.965 73.921 116.467 26.974 124.035 17.667 66.694 3.497 68.968 0.467 50.369 14.649 48.078 11.04 25.739 33.179 22.181 36.775 44.533 56.409 41.347 59.42 59.983"></polyline>
                <path d="M77.099,0.31 C84.258,-0.834 91.004,4.277 92.213,11.714 C93.41,19.169 88.63,26.134 81.474,27.302 C74.472,28.424 67.563,23.316 66.357,15.891 C65.158,8.433 70.087,1.424 77.099,0.31 Z M74.998,57.387 L69.576,58.26 L66.548,39.538 L94.077,35.109 L106.407,111.142 L84.307,114.706 L74.998,57.387 L74.998,57.387 Z" id="Fill-4"></path>
            </g>
            <path d="M303.367,91.492 C314.43,89.714 318.163,81.146 316.318,69.833 C314.508,58.519 308.253,51.549 297.184,53.336 C285.944,55.138 282.258,63.694 284.068,75.013 C285.909,86.348 292.152,93.302 303.367,91.492 Z M293.875,32.852 C315.993,29.296 334.549,42.237 338.431,66.254 C342.349,90.298 328.831,108.421 306.702,111.981 C284.423,115.56 265.706,102.639 261.807,78.612 C257.905,54.575 271.585,36.435 293.875,32.852 L293.875,32.852 Z" id="Fill-6" stroke="#B82F27" stroke-width="5" fill="#FFFFFF"></path>
            <path d="M340.297,27.288 L361.626,23.874 L363.282,34.087 L363.602,34.05 C365.602,27.681 371.928,20.296 382.683,18.57 C405.096,14.945 411.83,29.801 415.103,49.98 L421.842,91.533 L399.564,95.112 L393.598,58.203 C392.166,49.508 390.195,38.359 378.847,40.192 C367.298,42.052 367.123,51.798 368.721,61.559 L374.8,99.094 L352.542,102.698 L340.297,27.288" id="Fill-7" stroke="#B82F27" stroke-width="5" fill="#FFFFFF"></path>
            <polyline id="Fill-8" stroke="#B82F27" stroke-width="5" fill="#FFFFFF" points="208.71 140.863 232.695 137.006 271.575 182.621 271.905 182.559 281.381 128.512 303.639 124.933 287.522 204.879 264.014 208.662 208.71 140.863"></polyline>
            <path d="M354.981,146.572 C353.867,138.808 347.985,133.068 339.875,134.382 C330.228,135.936 327.944,143.45 328.645,150.81 L354.981,146.572 Z M377.204,178.031 C371.087,187.76 363.705,194.518 352.186,196.359 C329.909,199.965 313.059,186.754 309.167,162.705 C305.258,138.663 317.071,120.854 339.359,117.269 C360.055,113.932 372.867,127.782 376.775,151.839 L377.94,159.133 L331.228,166.658 C334.374,175.207 339.678,180.248 348.227,178.877 C355.388,177.717 363.694,174.781 367.68,169.693 L377.204,178.031 L377.204,178.031 Z" id="Fill-9" stroke="#B82F27" stroke-width="5" fill="#FFFFFF"></path>
            <g id="Group-15">
                <mask id="mask-2" fill="white">
                    <use xlink:href="#path-1"></use>
                </mask>
                <g id="Clip-11"></g>
                <path d="M377.533,113.049 L399.801,109.45 L401.739,121.534 L402.07,121.493 C405.245,111.596 407.044,106.844 416.867,105.247 C419.357,104.86 429.494,108.169 434.768,116.086 L428.106,131.325 C425.787,127.862 421.26,125.569 417.996,126.093 C404.426,128.286 404.467,138.31 406.921,153.357 L412.025,184.84 L389.757,188.412 L377.533,113.049" id="Fill-10" stroke="#B82F27" stroke-width="5" fill="#FFFFFF" mask="url(#mask-2)"></path>
                <path d="M485.341,153.955 C496.401,152.148 499.504,143.696 497.684,132.373 C495.818,121.069 490.203,113.991 479.144,115.796 C467.94,117.58 462.656,126.404 464.486,137.713 C466.317,149.046 474.122,155.737 485.341,153.955 Z M431.195,61.43 L453.297,57.859 L461.393,107.819 L461.712,107.766 C465.512,99.684 473.664,95.659 482.835,94.183 C503.252,90.894 516.493,108.507 519.88,129.443 C523.592,152.255 514.534,170.252 493.173,173.692 C483.197,175.293 473.477,170.344 469.306,165.43 L468.998,165.477 L470.616,175.406 L450.209,178.688 L431.195,61.43 L431.195,61.43 Z" id="Fill-12" stroke="#B82F27" stroke-width="5" fill="#FFFFFF" mask="url(#mask-2)"></path>
                <path d="M62.032,110.864 C60.186,99.535 52.396,92.85 41.176,94.642 C30.114,96.423 26.995,104.885 28.833,116.204 C30.669,127.528 36.304,134.586 47.356,132.811 C58.565,131.007 63.873,122.193 62.032,110.864 Z M88.545,145.294 L68.149,148.577 L66.535,138.629 L66.21,138.677 C63.818,144.644 56.123,152.405 46.167,153.997 C24.819,157.444 10.52,143.178 6.818,120.391 C3.428,99.453 10.417,78.585 30.836,75.311 C40.011,73.822 49.019,75.078 55.185,81.58 L55.504,81.516 L53.543,69.44 L75.653,65.876 L88.545,145.294 L88.545,145.294 Z" id="Fill-13" stroke="#B82F27" stroke-width="5" fill="#FFFFFF" mask="url(#mask-2)"></path>
                <path d="M162.62,276.242 C137.583,280.41 113.922,263.57 109.741,238.662 C105.559,213.715 122.463,190.168 147.469,185.984 C172.516,181.83 196.187,198.656 200.373,223.594 C204.534,248.49 187.627,272.088 162.62,276.242 Z M187.708,144.231 L95.81,159.505 L63.158,246.416 L122.391,318 L214.304,302.736 L246.938,215.824 L187.708,144.231 L187.708,144.231 Z" id="Fill-14" stroke="#B82F27" stroke-width="5" fill="#FFFFFF" mask="url(#mask-2)"></path>
            </g>
            <path d="M193.328,207.74 C184.442,191.834 166.224,182.375 147.168,185.543 C133.348,187.838 122.111,196.233 115.728,207.514 C117.664,206.149 119.667,204.859 121.822,203.715 C132.743,197.938 145.838,195.166 158.037,197.918 C170.802,200.822 179.823,210.805 183.071,223.231 C184.793,229.803 184.806,237.58 180.792,243.379 C177.147,248.65 170.692,251.912 164.42,252.774 C157.366,253.734 150.961,251.295 148.267,244.369 C145.851,238.119 148.581,230.27 155.722,228.924 C149.764,228.996 145.343,234.686 144.896,240.266 C144.454,245.848 147.078,251.85 151.504,255.285 C160.891,262.555 176.375,259.274 184.995,252.486 C198.515,241.848 199.237,223.127 193.328,207.74" id="Fill-16" stroke="#B82F27" stroke-width="5" fill="#FFFFFF"></path>
        </g>
    </g>
</svg>