<?xml version="1.0" encoding="UTF-8"?>
<svg width="520px" height="311px" viewBox="0 0 520 311" version="1.1" xmlns="http://www.w3.org/2000/svg" xmlns:xlink="http://www.w3.org/1999/xlink">
    <defs></defs>
    <g id="Page-1" stroke="none" stroke-width="1" fill="none" fill-rule="evenodd">
        <g id="Action-Verb-Logo" fill="#CF352C">
            <path d="M479.341,146.955 C490.401,145.148 493.504,136.696 491.684,125.373 C489.818,114.069 484.203,106.991 473.144,108.796 C461.94,110.58 456.656,119.404 458.486,130.713 C460.317,142.046 468.122,148.737 479.341,146.955 Z M425.195,54.43 L447.297,50.859 L455.393,100.819 L455.712,100.766 C459.512,92.684 467.664,88.659 476.835,87.183 C497.252,83.894 510.493,101.507 513.88,122.443 C517.592,145.255 508.534,163.252 487.173,166.692 C477.197,168.293 467.477,163.344 463.306,158.43 L462.998,158.477 L464.616,168.406 L444.209,171.688 L425.195,54.43 L425.195,54.43 Z" id="Fill-12"></path>
            <path d="M371.533,106.049 L393.801,102.45 L395.739,114.534 L396.07,114.493 C399.245,104.596 401.044,99.844 410.867,98.247 C413.357,97.86 423.494,101.169 428.768,109.086 L422.106,124.325 C419.787,120.862 415.26,118.569 411.996,119.093 C398.426,121.286 398.467,131.31 400.921,146.357 L406.025,177.84 L383.757,181.412 L371.533,106.049" id="Fill-10"></path>
            <path d="M348.981,139.572 C347.867,131.808 341.985,126.068 333.875,127.382 C324.228,128.936 321.944,136.45 322.645,143.81 L348.981,139.572 Z M371.204,171.031 C365.087,180.76 357.705,187.518 346.186,189.359 C323.909,192.965 307.059,179.754 303.167,155.705 C299.258,131.663 311.071,113.854 333.359,110.269 C354.055,106.932 366.867,120.782 370.775,144.839 L371.94,152.133 L325.228,159.658 C328.374,168.207 333.678,173.248 342.227,171.877 C349.388,170.717 357.694,167.781 361.68,162.693 L371.204,171.031 L371.204,171.031 Z" id="Fill-9"></path>
            <polyline id="Fill-8" points="202.71 133.863 226.695 130.006 265.575 175.621 265.905 175.559 275.381 121.512 297.639 117.933 281.522 197.879 258.014 201.662 202.71 133.863"></polyline>
            <path d="M180.328,201.74 C171.442,185.834 153.224,176.375 134.168,179.543 C120.348,181.838 109.111,190.233 102.728,201.514 C104.664,200.149 106.667,198.859 108.822,197.715 C119.743,191.938 132.838,189.166 145.037,191.918 C157.802,194.822 166.823,204.805 170.071,217.231 C171.793,223.803 171.806,231.58 167.792,237.379 C164.147,242.65 157.692,245.912 151.42,246.774 C144.366,247.734 137.961,245.295 135.267,238.369 C132.851,232.119 135.581,224.27 142.722,222.924 C136.764,222.996 132.343,228.686 131.896,234.266 C131.454,239.848 134.078,245.85 138.504,249.285 C147.891,256.555 163.375,253.274 171.995,246.486 C185.515,235.848 186.237,217.127 180.328,201.74" id="Fill-16"></path>
            <path d="M156.62,269.242 C131.583,273.41 107.922,256.57 103.741,231.662 C99.559,206.715 116.463,183.168 141.469,178.984 C166.516,174.83 190.187,191.656 194.373,216.594 C198.534,241.49 181.627,265.088 156.62,269.242 Z M181.708,137.231 L89.81,152.505 L57.158,239.416 L116.391,311 L208.304,295.736 L240.938,208.824 L181.708,137.231 L181.708,137.231 Z" id="Fill-14"></path>
            <path d="M334.297,20.288 L355.626,16.874 L357.282,27.087 L357.602,27.05 C359.602,20.681 365.928,13.296 376.683,11.57 C399.096,7.945 405.83,22.801 409.103,42.98 L415.842,84.533 L393.564,88.112 L387.598,51.203 C386.166,42.508 384.195,31.359 372.847,33.192 C361.298,35.052 361.123,44.798 362.721,54.559 L368.8,92.094 L346.542,95.698 L334.297,20.288" id="Fill-7"></path>
            <path d="M297.367,84.492 C308.43,82.714 312.163,74.146 310.318,62.833 C308.508,51.519 302.253,44.549 291.184,46.336 C279.944,48.138 276.258,56.694 278.068,68.013 C279.909,79.348 286.152,86.302 297.367,84.492 Z M287.875,25.852 C309.993,22.296 328.549,35.237 332.431,59.254 C336.349,83.298 322.831,101.421 300.702,104.981 C278.423,108.56 259.706,95.639 255.807,71.612 C251.905,47.575 265.585,29.435 287.875,25.852 L287.875,25.852 Z" id="Fill-6"></path>
            <path d="M224.099,0.31 C231.258,-0.834 238.004,4.277 239.213,11.714 C240.41,19.169 235.63,26.134 228.474,27.302 C221.472,28.424 214.563,23.316 213.357,15.891 C212.158,8.433 217.087,1.424 224.099,0.31 Z M221.998,57.387 L216.576,58.26 L213.548,39.538 L241.077,35.109 L253.407,111.142 L231.307,114.706 L221.998,57.387 L221.998,57.387 Z" id="Fill-4"></path>
            <polyline id="Fill-2" points="206.42 59.983 186.802 63.135 193.434 103.967 218.252 99.965 220.921 116.467 173.974 124.035 164.667 66.694 150.497 68.968 147.467 50.369 161.649 48.078 158.04 25.739 180.179 22.181 183.775 44.533 203.409 41.347 206.42 59.983"></polyline>
            <path d="M137.27,74.144 C134.539,71.207 125.246,73.035 120.737,73.771 C109.511,75.581 104.247,84.392 106.062,95.706 C107.896,107.02 115.705,113.738 126.917,111.913 C131.734,111.148 139.494,109.579 142.495,106.393 L154.175,118.194 C148.375,126.772 138.656,131.044 130.25,132.402 C107.966,135.991 87.696,123.321 83.783,99.274 C79.882,75.245 95.134,56.856 117.396,53.277 C125.839,51.929 136.38,52.933 144.593,59.243 L137.27,74.144" id="Fill-1"></path>
            <path d="M56.032,103.864 C54.186,92.535 46.396,85.85 35.176,87.642 C24.114,89.423 20.995,97.885 22.833,109.204 C24.669,120.528 30.304,127.586 41.356,125.811 C52.565,124.007 57.873,115.193 56.032,103.864 Z M82.545,138.294 L62.149,141.577 L60.535,131.629 L60.21,131.677 C57.818,137.644 50.123,145.405 40.167,146.997 C18.819,150.444 4.52,136.178 0.818,113.391 C-2.572,92.453 4.417,71.585 24.836,68.311 C34.011,66.822 43.019,68.078 49.185,74.58 L49.504,74.516 L47.543,62.44 L69.653,58.876 L82.545,138.294 L82.545,138.294 Z" id="Fill-13"></path>
        </g>
    </g>
</svg>
