<?xml version="1.0" encoding="UTF-8"?>
<svg width="515px" height="311px" viewBox="0 0 515 311" version="1.1" xmlns="http://www.w3.org/2000/svg" xmlns:xlink="http://www.w3.org/1999/xlink">
    <defs>
        <polygon id="path-1" points="514.690696 260.94 0.000398016234 260.94 0.000398016234 0.859 514.690696 0.859"></polygon>
    </defs>
    <g id="Page-1" stroke="none" stroke-width="1" fill="none" fill-rule="evenodd">
        <g id="Action-Verb-Logo">
            <path d="M137.27,74.144 C134.539,71.207 125.246,73.035 120.737,73.771 C109.511,75.581 104.247,84.392 106.062,95.706 C107.896,107.02 115.705,113.738 126.917,111.913 C131.734,111.148 139.494,109.579 142.495,106.393 L154.175,118.194 C148.375,126.772 138.656,131.044 130.25,132.402 C107.966,135.991 87.696,123.321 83.783,99.274 C79.882,75.245 95.134,56.856 117.396,53.277 C125.839,51.929 136.38,52.933 144.593,59.243 L137.27,74.144" id="Fill-1" fill="#fff"></path>
            <g id="Group-5" transform="translate(147.000000, 0.000000)" fill="#fff">
                <polyline id="Fill-2" points="59.42 59.983 39.802 63.135 46.434 103.967 71.252 99.965 73.921 116.467 26.974 124.035 17.667 66.694 3.497 68.968 0.467 50.369 14.649 48.078 11.04 25.739 33.179 22.181 36.775 44.533 56.409 41.347 59.42 59.983"></polyline>
                <path d="M77.099,0.31 C84.258,-0.834 91.004,4.277 92.213,11.714 C93.41,19.169 88.63,26.134 81.474,27.302 C74.472,28.424 67.563,23.316 66.357,15.891 C65.158,8.433 70.087,1.424 77.099,0.31 Z M74.998,57.387 L69.576,58.26 L66.548,39.538 L94.077,35.109 L106.407,111.142 L84.307,114.706 L74.998,57.387 L74.998,57.387 Z" id="Fill-4"></path>
            </g>
            <path d="M297.367,84.492 C308.43,82.714 312.163,74.146 310.318,62.833 C308.508,51.519 302.253,44.549 291.184,46.336 C279.944,48.138 276.258,56.694 278.068,68.013 C279.909,79.348 286.152,86.302 297.367,84.492 Z M287.875,25.852 C309.993,22.296 328.549,35.237 332.431,59.254 C336.349,83.298 322.831,101.421 300.702,104.981 C278.423,108.56 259.706,95.639 255.807,71.612 C251.905,47.575 265.585,29.435 287.875,25.852 L287.875,25.852 Z" id="Fill-6" fill="#fff"></path>
            <path d="M334.297,20.288 L355.626,16.874 L357.282,27.087 L357.602,27.05 C359.602,20.681 365.928,13.296 376.683,11.57 C399.096,7.945 405.83,22.801 409.103,42.98 L415.842,84.533 L393.564,88.112 L387.598,51.203 C386.166,42.508 384.195,31.359 372.847,33.192 C361.298,35.052 361.123,44.798 362.721,54.559 L368.8,92.094 L346.542,95.698 L334.297,20.288" id="Fill-7" fill="#fff"></path>
            <polyline id="Fill-8" fill="#fff" points="202.71 133.863 226.695 130.006 265.575 175.621 265.905 175.559 275.381 121.512 297.639 117.933 281.522 197.879 258.014 201.662 202.71 133.863"></polyline>
            <path d="M348.981,139.572 C347.867,131.808 341.985,126.068 333.875,127.382 C324.228,128.936 321.944,136.45 322.645,143.81 L348.981,139.572 Z M371.204,171.031 C365.087,180.76 357.705,187.518 346.186,189.359 C323.909,192.965 307.059,179.754 303.167,155.705 C299.258,131.663 311.071,113.854 333.359,110.269 C354.055,106.932 366.867,120.782 370.775,144.839 L371.94,152.133 L325.228,159.658 C328.374,168.207 333.678,173.248 342.227,171.877 C349.388,170.717 357.694,167.781 361.68,162.693 L371.204,171.031 L371.204,171.031 Z" id="Fill-9" fill="#fff"></path>
            <g id="Group-15" transform="translate(0.000000, 50.000000)">
                <mask id="mask-2" fill="white">
                    <use xlink:href="#path-1"></use>
                </mask>
                <g id="Clip-11"></g>
                <path d="M371.533,56.049 L393.801,52.45 L395.739,64.534 L396.07,64.493 C399.245,54.596 401.044,49.844 410.867,48.247 C413.357,47.86 423.494,51.169 428.768,59.086 L422.106,74.325 C419.787,70.862 415.26,68.569 411.996,69.093 C398.426,71.286 398.467,81.31 400.921,96.357 L406.025,127.84 L383.757,131.412 L371.533,56.049" id="Fill-10" fill="#fff" mask="url(#mask-2)"></path>
                <path d="M479.341,96.955 C490.401,95.148 493.504,86.696 491.684,75.373 C489.818,64.069 484.203,56.991 473.144,58.796 C461.94,60.58 456.656,69.404 458.486,80.713 C460.317,92.046 468.122,98.737 479.341,96.955 Z M425.195,4.43 L447.297,0.859 L455.393,50.819 L455.712,50.766 C459.512,42.684 467.664,38.659 476.835,37.183 C497.252,33.894 510.493,51.507 513.88,72.443 C517.592,95.255 508.534,113.252 487.173,116.692 C477.197,118.293 467.477,113.344 463.306,108.43 L462.998,108.477 L464.616,118.406 L444.209,121.688 L425.195,4.43 L425.195,4.43 Z" id="Fill-12" fill="#fff" mask="url(#mask-2)"></path>
                <path d="M56.032,53.864 C54.186,42.535 46.396,35.85 35.176,37.642 C24.114,39.423 20.995,47.885 22.833,59.204 C24.669,70.528 30.304,77.586 41.356,75.811 C52.565,74.007 57.873,65.193 56.032,53.864 Z M82.545,88.294 L62.149,91.577 L60.535,81.629 L60.21,81.677 C57.818,87.644 50.123,95.405 40.167,96.997 C18.819,100.444 4.52,86.178 0.818,63.391 C-2.572,42.453 4.417,21.585 24.836,18.311 C34.011,16.822 43.019,18.078 49.185,24.58 L49.504,24.516 L47.543,12.44 L69.653,8.876 L82.545,88.294 L82.545,88.294 Z" id="Fill-13" fill="#fff" mask="url(#mask-2)"></path>
                <path d="M156.62,219.242 C131.583,223.41 107.922,206.57 103.741,181.662 C99.559,156.715 116.463,133.168 141.469,128.984 C166.516,124.83 190.187,141.656 194.373,166.594 C198.534,191.49 181.627,215.088 156.62,219.242 Z M181.708,87.231 L89.81,102.505 L57.158,189.416 L116.391,261 L208.304,245.736 L240.938,158.824 L181.708,87.231 L181.708,87.231 Z" id="Fill-14" fill="#fff" mask="url(#mask-2)"></path>
            </g>
            <path d="M180.328,201.74 C171.442,185.834 153.224,176.375 134.168,179.543 C120.348,181.838 109.111,190.233 102.728,201.514 C104.664,200.149 106.667,198.859 108.822,197.715 C119.743,191.938 132.838,189.166 145.037,191.918 C157.802,194.822 166.823,204.805 170.071,217.231 C171.793,223.803 171.806,231.58 167.792,237.379 C164.147,242.65 157.692,245.912 151.42,246.774 C144.366,247.734 137.961,245.295 135.267,238.369 C132.851,232.119 135.581,224.27 142.722,222.924 C136.764,222.996 132.343,228.686 131.896,234.266 C131.454,239.848 134.078,245.85 138.504,249.285 C147.891,256.555 163.375,253.274 171.995,246.486 C185.515,235.848 186.237,217.127 180.328,201.74" id="Fill-16" fill="#fff"></path>
        </g>
    </g>
</svg>
