<svg width="30" height="27" viewBox="0 0 30 27" xmlns="http://www.w3.org/2000/svg"><path d="M23.571 16.107a.529.529 0 0 0-.535-.536h-1.072a.529.529 0 0 0-.535.536v5.357a2.686 2.686 0 0 1-2.679 2.679H4.821a2.686 2.686 0 0 1-2.678-2.679V7.536A2.686 2.686 0 0 1 4.82 4.857h11.786a.529.529 0 0 0 .536-.536V3.25a.529.529 0 0 0-.536-.536H4.821A4.823 4.823 0 0 0 0 7.536v13.928a4.823 4.823 0 0 0 4.821 4.822H18.75a4.823 4.823 0 0 0 4.821-4.822v-5.357zM30 1.643C30 1.057 29.515.57 28.929.57h-8.572c-.586 0-1.071.486-1.071 1.072 0 .284.117.552.318.753l2.946 2.947-10.915 10.915c-.1.1-.167.25-.167.385 0 .134.067.284.167.385l1.909 1.908c.1.1.25.168.385.168a.577.577 0 0 0 .385-.168L25.229 8.021l2.946 2.947c.201.2.469.318.754.318.586 0 1.071-.486 1.071-1.072V1.643z" fill-rule="nonzero" fill="#CF352C"/></svg>