<?xml version="1.0" encoding="UTF-8"?>
<svg width="22px" height="21px" viewBox="0 0 22 21" version="1.1" xmlns="http://www.w3.org/2000/svg" xmlns:xlink="http://www.w3.org/1999/xlink">
    <defs></defs>
    <g id="Page-1" stroke="none" stroke-width="1" fill="none" fill-rule="evenodd">
        <g id="logo-linkedin" transform="translate(-1.000000, -1.000000)">
            <g id="Filled_Icons" transform="translate(1.000000, 1.000000)" fill-rule="nonzero" fill="#FFFFFF">
                <path d="M5.527,20.5 L0.527,20.5 L0.527,7.5 L5.527,7.5 L5.527,20.5 Z M3.018,5.5 L2.988,5.5 C1.477,5.5 0.5,4.318 0.5,3.019 C0.5,1.69 1.508,0.607 3.047,0.607 C4.588,0.607 5.535,1.725 5.566,3.054 C5.565,4.353 4.588,5.5 3.018,5.5 Z M14.527,11.5 C13.422,11.5 12.527,12.396 12.527,13.5 L12.527,20.5 L7.527,20.5 C7.527,20.5 7.586,8.5 7.527,7.5 L12.527,7.5 L12.527,8.985 C12.527,8.985 14.075,7.542 16.465,7.542 C19.427,7.542 21.527,9.686 21.527,13.846 L21.527,20.5 L16.527,20.5 L16.527,13.5 C16.527,12.396 15.632,11.5 14.527,11.5 Z" id="Shape"></path>
            </g>
            <g id="Frames-24px">
                <rect id="Rectangle-path" x="0" y="0" width="24" height="24"></rect>
            </g>
        </g>
    </g>
</svg>
