<svg width="21" height="24" viewBox="0 0 21 24" xmlns="http://www.w3.org/2000/svg"><g fill="none" fill-rule="evenodd"><g fill-rule="nonzero" fill="#FFF"><path d="M14.5 24h-11c-1.654 0-3-1.346-3-3v-5.5a1 1 0 0 1 2 0V21c0 .551.449 1 1 1h11c.551 0 1-.449 1-1v-5.5a1 1 0 0 1 2 0V21c0 1.654-1.346 3-3 3z"/><path d="M13 20H5a1 1 0 1 1 0-2h8a1 1 0 0 1 0 2zM13.388 17.315a.982.982 0 0 1-.208-.023l-7.826-1.661a1 1 0 1 1 .415-1.955l7.826 1.66a1 1 0 0 1-.207 1.979zM14.322 14.766a.983.983 0 0 1-.405-.086l-7.312-3.248a1 1 0 1 1 .812-1.828l7.312 3.248a1 1 0 0 1-.407 1.914zM15.766 12.467a.998.998 0 0 1-.586-.189L8.702 7.583a1 1 0 1 1 1.174-1.619l6.477 4.695a1 1 0 0 1-.587 1.808zM17.657 10.519c-.273 0-.545-.111-.743-.329l-5.363-5.938a1 1 0 1 1 1.485-1.341l5.363 5.937a1 1 0 0 1-.742 1.671zM19.91 9.004a.997.997 0 0 1-.866-.498l-4.015-6.92a1 1 0 0 1 1.73-1.004l4.015 6.92a1 1 0 0 1-.864 1.502z"/></g><path d="M-2 0h24v24H-2z"/></g></svg>