<svg width="184" height="174" viewBox="0 0 184 174" xmlns="http://www.w3.org/2000/svg"><g fill="#FFFCEB" fill-rule="evenodd"><path d="M123.328 64.74c-8.886-15.906-27.104-25.365-46.16-22.197-13.82 2.295-25.057 10.69-31.44 21.971 1.936-1.365 3.939-2.655 6.094-3.799 10.921-5.777 24.016-8.549 36.215-5.797 12.765 2.904 21.786 12.887 25.034 25.313 1.722 6.572 1.735 14.349-2.279 20.148-3.645 5.271-10.1 8.533-16.372 9.395-7.054.96-13.459-1.479-16.153-8.405-2.416-6.25.314-14.099 7.455-15.445-5.958.072-10.379 5.762-10.826 11.342-.442 5.582 2.182 11.584 6.608 15.019 9.387 7.27 24.871 3.989 33.491-2.799 13.52-10.638 14.242-29.359 8.333-44.746"/><path d="M99.62 132.242c-25.037 4.168-48.698-12.672-52.879-37.58-4.182-24.947 12.722-48.494 37.728-52.678 25.047-4.154 48.718 12.672 52.904 37.61 4.161 24.896-12.746 48.494-37.753 52.648zM124.708.231L32.81 15.505.158 102.416 59.391 174l91.913-15.264 32.634-86.912L124.708.231z"/></g></svg>