<?xml version="1.0" encoding="UTF-8"?>
<svg width="184px" height="174px" viewBox="0 0 184 174" version="1.1" xmlns="http://www.w3.org/2000/svg" xmlns:xlink="http://www.w3.org/1999/xlink">
    <defs></defs>
    <g id="Page-1" stroke="none" stroke-width="1" fill="none" fill-rule="evenodd">
        <g id="Action-Verb-Logo" transform="translate(-57.000000, -137.000000)" fill="#CF352C">
            <g id="Group" transform="translate(57.000000, 137.000000)">
                <path d="M123.328,64.74 C114.442,48.834 96.224,39.375 77.168,42.543 C63.348,44.838 52.111,53.233 45.728,64.514 C47.664,63.149 49.667,61.859 51.822,60.715 C62.743,54.938 75.838,52.166 88.037,54.918 C100.802,57.822 109.823,67.805 113.071,80.231 C114.793,86.803 114.806,94.58 110.792,100.379 C107.147,105.65 100.692,108.912 94.42,109.774 C87.366,110.734 80.961,108.295 78.267,101.369 C75.851,95.119 78.581,87.27 85.722,85.924 C79.764,85.996 75.343,91.686 74.896,97.266 C74.454,102.848 77.078,108.85 81.504,112.285 C90.891,119.555 106.375,116.274 114.995,109.486 C128.515,98.848 129.237,80.127 123.328,64.74" id="Fill-16"></path>
                <path d="M99.62,132.242 C74.583,136.41 50.922,119.57 46.741,94.662 C42.559,69.715 59.463,46.168 84.469,41.984 C109.516,37.83 133.187,54.656 137.373,79.594 C141.534,104.49 124.627,128.088 99.62,132.242 Z M124.708,0.231 L32.81,15.505 L0.158,102.416 L59.391,174 L151.304,158.736 L183.938,71.824 L124.708,0.231 L124.708,0.231 Z" id="Fill-14"></path>
            </g>
        </g>
    </g>
</svg>
